<?xml version="1.0" encoding="UTF-8"?>
<svg version="1.1" xmlns="http://www.w3.org/2000/svg" width="612" height="120">
<path d="M0 0 C201.96 0 403.92 0 612 0 C612 37.29 612 74.58 612 113 C410.04 113 208.08 113 0 113 C0 75.71 0 38.42 0 0 Z " fill="#092058" transform="translate(0,7)"/>
<path d="M0 0 C6.60472827 -0.41934783 11.55944667 1.47749388 16.96484375 5.234375 C22.48985612 10.33509593 26.60268033 15.03422006 27.265625 22.72265625 C27.29377798 31.90991202 27.23660107 38.9647255 20.77734375 45.984375 C14.21579595 52.08619652 6.8237454 54.66420279 -2.05078125 54.58203125 C-9.33656016 53.73329523 -15.9845959 49.40518679 -21.03515625 44.234375 C-23.59142522 40.19859345 -25.57899716 36.02404547 -26.03515625 31.234375 C-26.12152344 30.53957031 -26.20789062 29.84476563 -26.296875 29.12890625 C-26.84566818 21.45799712 -24.33236871 15.52607425 -20.03515625 9.234375 C-14.17987053 3.42395737 -8.08727506 0.93135605 0 0 Z " fill="#0F265D" transform="translate(67.03515625,34.765625)"/>
<path d="M0 0 C5.22436865 3.20764065 8.77323462 6.92395818 10.28515625 12.94140625 C11.21099352 20.83255416 10.83730331 29.19500284 5.92578125 35.7578125 C2.21003898 39.73212446 -1.28051014 41.64529653 -6.765625 42.3125 C-13.02807838 42.43999905 -17.97024694 42.38335537 -23.12890625 38.57421875 C-28.91104492 32.62117943 -30.08444726 24.98778753 -29.98828125 17.015625 C-29.42502027 10.68296227 -26.82210632 6.68888415 -22.15234375 2.50390625 C-16.13254061 -2.4165119 -7.13416848 -2.78181246 0 0 Z " fill="#F5F6F8" transform="translate(168.71484375,42.05859375)"/>
<path d="M0 0 C3.50625 -0.061875 7.0125 -0.12375 10.625 -0.1875 C11.71893066 -0.21481201 12.81286133 -0.24212402 13.93994141 -0.27026367 C19.32257022 -0.31618043 23.48333565 -0.28419916 28 3 C32.14316815 8.18333061 31.60115951 13.67064918 31 20 C29.78221353 24.26225265 28.22236305 26.16293999 24.5 28.375 C19.38631973 30.68378848 14.52172281 30.27608614 9 30 C9 34.29 9 38.58 9 43 C6.03 43 3.06 43 0 43 C0 28.81 0 14.62 0 0 Z " fill="#F9F9FB" transform="translate(185,41)"/>
<path d="M0 0 C9 0 9 0 11.36694336 2.15551758 C11.93550049 3.14189209 12.50405762 4.1282666 13.08984375 5.14453125 C13.72857422 6.21380859 14.36730469 7.28308594 15.02539062 8.38476562 C15.65638672 9.51591797 16.28738281 10.64707031 16.9375 11.8125 C17.59556641 12.93205078 18.25363281 14.05160156 18.93164062 15.20507812 C20.14917997 17.28000444 21.35306678 19.36304431 22.53881836 21.45629883 C23.62392573 23.3453103 24.7915907 25.18738606 26 27 C26.33 18.09 26.66 9.18 27 0 C29.64 0 32.28 0 35 0 C35 14.19 35 28.38 35 43 C32.03 43 29.06 43 26 43 C23.68143397 40.64932087 22.43628086 39.04030984 20.875 36.25 C20.4639502 35.57638428 20.05290039 34.90276855 19.62939453 34.20874023 C18.38700358 32.15654638 17.1916795 30.08195176 16 28 C15.27321593 26.77592596 14.54418533 25.5531819 13.8125 24.33203125 C12.17739365 21.57278928 10.58386138 18.78897331 9 16 C8.67 24.91 8.34 33.82 8 43 C5.36 43 2.72 43 0 43 C0 28.81 0 14.62 0 0 Z " fill="#FBFBFC" transform="translate(520,41)"/>
<path d="M0 0 C3.3 0 6.6 0 10 0 C13.52448751 7.60502281 16.49765019 15.39394226 19.42871094 23.2409668 C20.25788227 25.45858109 21.09354605 27.67367756 21.9296875 29.88867188 C22.45872185 31.29933352 22.98738169 32.71013569 23.515625 34.12109375 C23.8905307 35.11320107 23.8905307 35.11320107 24.27301025 36.12535095 C26 40.770375 26 40.770375 26 43 C22.7 43 19.4 43 16 43 C15.34 40.03 14.68 37.06 14 34 C8.39 34 2.78 34 -3 34 C-3.66 36.97 -4.32 39.94 -5 43 C-8.3 43 -11.6 43 -15 43 C-12.39021886 33.78793043 -9.11103969 24.8564496 -5.8125 15.875 C-5.2477835 14.33082546 -4.68332832 12.78655533 -4.11914062 11.2421875 C-2.74910272 7.49368325 -1.37553937 3.74648876 0 0 Z " fill="#F8F9FA" transform="translate(488,41)"/>
<path d="M0 0 C2.97 0 5.94 0 9 0 C9.01458252 0.85231201 9.02916504 1.70462402 9.04418945 2.58276367 C9.10543285 5.76071175 9.17962029 8.93802546 9.26245117 12.11547852 C9.29559806 13.48775958 9.32366171 14.86017362 9.34643555 16.23266602 C9.38016766 18.21137766 9.4340149 20.18971376 9.48828125 22.16796875 C9.51446533 23.35672607 9.54064941 24.5454834 9.56762695 25.77026367 C10.07415103 29.55389269 11.27788054 32.27788054 14 35 C18.90407418 35.50338053 18.90407418 35.50338053 23.19238281 33.42871094 C25.63923866 30.14112018 25.54258683 27.90220346 25.609375 23.828125 C25.62591125 23.1457074 25.64244751 22.46328979 25.65948486 21.76019287 C25.70789839 19.59003646 25.72931865 17.42058028 25.75 15.25 C25.77816562 13.77470448 25.80809389 12.29944149 25.83984375 10.82421875 C25.91365225 7.21629802 25.96326894 3.60851028 26 0 C28.97 0 31.94 0 35 0 C35.09965569 4.26832981 35.17183391 8.53602469 35.21972656 12.80517578 C35.23971295 14.25418917 35.26691197 15.70312325 35.30175781 17.15185547 C35.65240328 32.11616626 35.65240328 32.11616626 31 39 C26.90628395 42.96578743 22.585936 43.16641711 17.0625 43.25 C16.04285156 43.27578125 15.02320313 43.3015625 13.97265625 43.328125 C9.44558012 42.82842146 6.89327467 40.94431894 3.8125 37.6875 C0.41789646 32.65412234 -0.24835178 28.06375074 -0.1953125 22.0703125 C-0.18886719 20.78125 -0.18242187 19.4921875 -0.17578125 18.1640625 C-0.15907463 16.81770558 -0.14214479 15.47135141 -0.125 14.125 C-0.11495664 12.75521483 -0.10583317 11.38542258 -0.09765625 10.015625 C-0.07414412 6.67690244 -0.0412793 3.33854239 0 0 Z " fill="#F5F6F8" transform="translate(364,41)"/>
<path d="M0 0 C6.60472827 -0.41934783 11.55944667 1.47749388 16.96484375 5.234375 C22.54439481 10.38544635 26.530634 15.07053207 27.3359375 22.79296875 C27.53739643 34.56054011 27.53739643 34.56054011 24.90234375 37.984375 C17.62288744 43.56012877 11.94248169 43.63239836 2.96484375 43.234375 C2.96484375 42.574375 2.96484375 41.914375 2.96484375 41.234375 C3.48433594 41.01523438 4.00382812 40.79609375 4.5390625 40.5703125 C9.73098872 38.20947359 12.68078984 35.91166391 15.96484375 31.234375 C18.125876 24.75127825 18.15636591 16.79394112 15.27734375 10.609375 C10.69080765 5.89887846 7.29760938 3.7244375 0.96484375 2.234375 C1.87234375 2.79125 2.77984375 3.348125 3.71484375 3.921875 C7.881632 6.8867051 11.17905872 10.36405218 12.96484375 15.234375 C12.63484375 16.224375 12.30484375 17.214375 11.96484375 18.234375 C10.57265625 17.2753125 10.57265625 17.2753125 9.15234375 16.296875 C3.33883664 12.53519393 -2.27515694 12.49660858 -9.03515625 13.234375 C-14.51298571 15.14982517 -18.28225511 18.84150925 -21.13671875 23.83203125 C-22.87022039 28.4672639 -22.94521225 33.32833882 -23.03515625 38.234375 C-25.53981667 35.72971458 -25.59637674 34.74461106 -26.03515625 31.234375 C-26.12410156 30.53183594 -26.21304688 29.82929687 -26.3046875 29.10546875 C-26.83357941 21.44268602 -24.32834082 15.52017688 -20.03515625 9.234375 C-14.17987053 3.42395737 -8.08727506 0.93135605 0 0 Z " fill="#F4F5F8" transform="translate(67.03515625,34.765625)"/>
<path d="M0 0 C8.58 0 17.16 0 26 0 C26 2.31 26 4.62 26 7 C20.39 7 14.78 7 9 7 C9 10.63 9 14.26 9 18 C13.29 18 17.58 18 22 18 C22 19.98 22 21.96 22 24 C17.71 24 13.42 24 9 24 C9 27.96 9 31.92 9 36 C15.27 36 21.54 36 28 36 C28 38.31 28 40.62 28 43 C18.76 43 9.52 43 0 43 C0 28.81 0 14.62 0 0 Z " fill="#FCFCFD" transform="translate(222,41)"/>
<path d="M0 0 C3.3 0 6.6 0 10 0 C10.2673999 0.81267334 10.5347998 1.62534668 10.81030273 2.46264648 C11.80123307 5.46946639 12.79483725 8.47538521 13.7902832 11.48071289 C14.22105089 12.78309049 14.65074225 14.08582458 15.0793457 15.38891602 C15.69461363 17.25890373 16.31404059 19.12752142 16.93359375 20.99609375 C17.4913147 22.68496704 17.4913147 22.68496704 18.06030273 24.40795898 C18.75540376 26.8966603 18.75540376 26.8966603 20 28 C22.97 18.76 25.94 9.52 29 0 C32.3 0 35.6 0 39 0 C36.39021886 9.21206957 33.11103969 18.1435504 29.8125 27.125 C29.2477835 28.66917454 28.68332832 30.21344467 28.11914062 31.7578125 C26.74910272 35.50631675 25.37553937 39.25351124 24 43 C21.03 43 18.06 43 15 43 C12.85966804 37.19909319 10.72352867 31.39666682 8.59130859 25.59277344 C7.86492928 23.61741169 7.13739367 21.64247475 6.40869141 19.66796875 C5.36318595 16.83443561 4.32180983 13.99941494 3.28125 11.1640625 C2.95314331 10.27756012 2.62503662 9.39105774 2.2869873 8.47769165 C1.98667603 7.65699188 1.68636475 6.83629211 1.37695312 5.99072266 C0.97724304 4.9048436 0.97724304 4.9048436 0.56945801 3.79702759 C0 2 0 2 0 0 Z " fill="#F7F8FA" transform="translate(320,41)"/>
<path d="M0 0 C1.12148438 -0.01417969 2.24296875 -0.02835938 3.3984375 -0.04296875 C6.57384842 0.18384632 8.76734718 0.83359332 11.625 2.1875 C11.295 4.4975 10.965 6.8075 10.625 9.1875 C10.00625 9.0225 9.3875 8.8575 8.75 8.6875 C4.37029271 7.98674683 0.05071011 8.11015749 -4.375 8.1875 C-4.89236864 11.01807216 -4.89236864 11.01807216 -4.375 14.1875 C-1.6888612 16.45929665 -1.6888612 16.45929665 1.8125 18.1875 C10.80368674 23.27632506 10.80368674 23.27632506 13.625 28.1875 C14.45318697 32.82534705 14.0442224 34.55267752 11.4375 38.5 C6.21396061 43.49138209 1.46637946 43.49341437 -5.48046875 43.390625 C-8.70511152 43.16433428 -11.4185343 42.50148476 -14.375 41.1875 C-14.045 38.8775 -13.715 36.5675 -13.375 34.1875 C-12.75625 34.3525 -12.1375 34.5175 -11.5 34.6875 C-6.80089775 35.43935636 -0.73560244 36.36780122 3.625 34.1875 C3.61308987 31.81305637 3.61308987 31.81305637 2.625 29.1875 C0.51164445 27.63122143 -1.39730321 26.4109276 -3.6875 25.1875 C-8.21990024 22.67006381 -11.57551988 20.6233912 -14.375 16.1875 C-15.14965312 12.76834141 -15.04116259 9.62557642 -14.375 6.1875 C-10.21729631 0.68135188 -6.62926161 0.03792484 0 0 Z " fill="#F6F7F9" transform="translate(271.375,40.8125)"/>
<path d="M0 0 C1.22589844 -0.00257812 2.45179688 -0.00515625 3.71484375 -0.0078125 C6.39012431 0.09832465 8.53177428 0.32582346 11.0625 1.125 C10.7325 3.765 10.4025 6.405 10.0625 9.125 C9.423125 8.96 8.78375 8.795 8.125 8.625 C2.91203644 7.77390391 -1.94208329 7.27588651 -6.875 9.375 C-9.8988581 11.94069778 -10.81987615 14.01444752 -11.23828125 17.96484375 C-11.24214844 18.98707031 -11.24601562 20.00929688 -11.25 21.0625 C-11.26675781 22.08214844 -11.28351563 23.10179688 -11.30078125 24.15234375 C-10.79442524 28.29575149 -9.05973922 30.87327164 -6.3125 33.9375 C-1.05790083 36.56479958 5.49661319 35.26672037 11.0625 34.125 C11.0625 36.435 11.0625 38.745 11.0625 41.125 C5.65668929 44.47017989 -0.82935302 43.67842271 -6.9375 43.125 C-13.84442026 41.17120757 -17.24129028 37.15394593 -20.6875 31 C-22.92977193 25.25729245 -22.92310926 19.21324235 -21.05859375 13.37109375 C-18.40236845 7.48882583 -15.51579167 4.32735262 -9.9375 1.125 C-6.45291293 -0.03652902 -3.67059492 -0.00770324 0 0 Z " fill="#F4F5F8" transform="translate(456.9375,40.875)"/>
<path d="M0 0 C1.10085937 0.00644531 2.20171875 0.01289062 3.3359375 0.01953125 C6.50509206 0.18137644 9.50948397 0.5992228 12.625 1.1875 C12.295 3.8275 11.965 6.4675 11.625 9.1875 C11.00625 9.0225 10.3875 8.8575 9.75 8.6875 C4.07743979 7.77989037 -1.28182297 6.96648007 -6.375 9.9375 C-10.28142137 14.33222405 -10.8097677 17.88748192 -10.69921875 23.64453125 C-10.18829459 27.65190024 -8.74985907 29.93055042 -6.375 33.1875 C-3.01619635 35.42670243 -1.85923396 35.43353334 2.0625 35.375 C3.00996094 35.36855469 3.95742187 35.36210938 4.93359375 35.35546875 C7.3110594 35.20709281 9.34879037 34.86013878 11.625 34.1875 C11.625 36.4975 11.625 38.8075 11.625 41.1875 C6.20948542 44.52528002 -0.26465359 43.85731426 -6.375 43.1875 C-11.57791568 41.26226209 -15.40724145 37.86742695 -18.375 33.1875 C-21.00136409 26.43535668 -22.06805954 18.63003226 -19.4296875 11.70703125 C-14.86768154 4.06065018 -8.91946233 -0.11435208 0 0 Z " fill="#F8F8FA" transform="translate(123.375,40.8125)"/>
<path d="M0 0 C2.8100346 1.79363911 4.50940468 3.01880935 6 6 C6.15112939 8.61860735 6.23133862 11.19290882 6.25 13.8125 C6.270625 14.52470703 6.29125 15.23691406 6.3125 15.97070312 C6.34618584 20.5225022 5.84122229 23.40864192 3 27 C-0.67294875 29.4486325 -3.73268965 29.83183438 -8 29 C-11.21954645 26.46546343 -12.70432435 24.88702695 -14 21 C-14.14619515 18.71148355 -14.22091336 16.41799684 -14.25 14.125 C-14.28867188 12.30355469 -14.28867188 12.30355469 -14.328125 10.4453125 C-13.97446831 6.73191722 -13.25141594 4.93525723 -11 2 C-7.31502204 -0.45665197 -4.28028214 -0.70086491 0 0 Z " fill="#0B225A" transform="translate(163,48)"/>
<path d="M0 0 C2.97 0 5.94 0 9 0 C9 11.88 9 23.76 9 36 C14.28 36 19.56 36 25 36 C25 38.31 25 40.62 25 43 C16.75 43 8.5 43 0 43 C0 28.81 0 14.62 0 0 Z " fill="#FBFBFC" transform="translate(409,41)"/>
<path d="M0 0 C0.33 0 0.66 0 1 0 C1.01417969 0.845625 1.02835938 1.69125 1.04296875 2.5625 C1.35037945 9.87388961 1.90873882 15.48786123 7 21 C13.12795677 25.77980628 18.39393681 26.83384989 26 26 C30.46323171 24.46410084 34.37789497 22.01842086 38 19 C35.41021724 24.95126846 30.10588018 29.3749024 24.1875 31.9375 C17.02031759 34.16760177 10.32249252 33.98287191 3.5625 30.6875 C-4.59610215 26.21169355 -4.59610215 26.21169355 -6 22 C-6.71968769 14.48440424 -6.77159077 8.60192936 -2.19140625 2.390625 C-1 1 -1 1 0 0 Z " fill="#F2F3F6" transform="translate(53,56)"/>
<path d="M0 0 C4.09572746 0.7313799 5.76688993 1.48996198 8.5 4.625 C9.64888518 8.57429279 9.93129396 10.65458859 8.25 14.4375 C5.94612273 17.31734659 4.30848609 18.51954529 0.625 19 C-3.21852258 18.53877729 -4.75600111 17.29059892 -7.5 14.625 C-8.95147903 11.72204195 -8.87239025 9.85238221 -8.5 6.625 C-6.00929995 2.549309 -4.77027249 0.85183437 0 0 Z " fill="#8994AF" transform="translate(570.5,40.375)"/>
<path d="M0 0 C8.14583333 -0.47916667 8.14583333 -0.47916667 11.5625 1.4375 C13.7145847 5.27382489 13.74831272 8.70704811 13 13 C11.5625 15.5625 11.5625 15.5625 9 17 C5.91796887 17.31297734 3.11460416 17.18321201 0 17 C0 11.39 0 5.78 0 0 Z " fill="#12285F" transform="translate(194,47)"/>
<path d="M0 0 C7.92 0 15.84 0 24 0 C24 2.31 24 4.62 24 7 C16.08 7 8.16 7 0 7 C0 4.69 0 2.38 0 0 Z " fill="#F7F8FA" transform="translate(293,59)"/>
<path d="M0 0 C2.59947787 2.59947787 3.0684435 4.92738453 4.125 8.4375 C4.47820312 9.59121094 4.83140625 10.74492188 5.1953125 11.93359375 C6 15 6 15 6 18 C2.37 18 -1.26 18 -5 18 C-3.41463415 3.41463415 -3.41463415 3.41463415 0 0 Z " fill="#223669" transform="translate(493,51)"/>
<path d="M0 0 C1.98 0 3.96 0 6 0 C6.66666667 3.33333333 7.33333333 6.66666667 8 10 C7.01 9.67 6.02 9.34 5 9 C4.67 8.34 4.34 7.68 4 7 C3.67 7.99 3.34 8.98 3 10 C2.01 10 1.02 10 0 10 C0 6.7 0 3.4 0 0 Z " fill="#CBD0DC" transform="translate(567,45)"/>
<path d="M0 0 C2.92761527 0.32529059 5.32615294 0.59569177 7.875 2.125 C9.67468071 5.12446786 9.36494286 7.59386668 9 11 C7.5 12.9375 7.5 12.9375 6 14 C4.41744803 9.67435795 3.54855348 5.571279 3 1 C2.01 0.67 1.02 0.34 0 0 Z " fill="#22376A" transform="translate(569,42)"/>
<path d="M0 0 C0.66 0.33 1.32 0.66 2 1 C1.979375 1.928125 1.95875 2.85625 1.9375 3.8125 C1.84230396 7.02286011 1.84230396 7.02286011 3 10 C2.01 9.67 1.02 9.34 0 9 C-0.33 8.01 -0.66 7.02 -1 6 C-1.66 5.67 -2.32 5.34 -3 5 C-2.625 3.0625 -2.625 3.0625 -2 1 C-1.34 0.67 -0.68 0.34 0 0 Z " fill="#B3BACB" transform="translate(572,45)"/>
<path d="M0 0 C9.41002278 -0.3690205 9.41002278 -0.3690205 14 2 C13.01 3.485 13.01 3.485 12 5 C10.948125 4.505 9.89625 4.01 8.8125 3.5 C5.74547391 2.17220212 3.37865064 1.69284994 0 2 C0 1.34 0 0.68 0 0 Z " fill="#B5BCCD" transform="translate(65,35)"/>
<path d="M0 0 C1.65 1.65 3.3 3.3 5 5 C4 6 4 6 0.4375 6.0625 C-0.696875 6.041875 -1.83125 6.02125 -3 6 C-2.67 5.34 -2.34 4.68 -2 4 C-1.34 4 -0.68 4 0 4 C0 2.68 0 1.36 0 0 Z " fill="#172C62" transform="translate(570,51)"/>
</svg>
